<svg width="160" height="144" xmlns="http://www.w3.org/2000/svg" xmlns:xlink="http://www.w3.org/1999/xlink" xml:space="preserve" overflow="hidden"><g transform="translate(-964 -208)"><g><g><g><g><path d="M111.517 56.0584 104.7 56.0584 104.7 17.3137 82.0699 17.3137 82.0699 10.4973 111.517 10.4973 111.517 56.0584Z" fill="#0057FF" fill-rule="nonzero" fill-opacity="1" transform="matrix(1.00389 0 0 1 965.779 209)"/><path d="M85.5326 142 0 142 0 10.4973 30.1559 10.4973 30.1559 17.3137 6.81644 17.3137 6.81644 135.184 85.5326 135.184 85.5326 142Z" fill="#0057FF" fill-rule="nonzero" fill-opacity="1" transform="matrix(1.00389 0 0 1 965.779 209)"/><path d="M49.7055 73.3448 72.0634 73.3448 72.0634 80.1613 49.7055 80.1613Z" fill="#0057FF" fill-rule="nonzero" fill-opacity="1" transform="matrix(1.00389 0 0 1 965.779 209)"/><path d="M49.7055 94.0396 72.0634 94.0396 72.0634 100.856 49.7055 100.856Z" fill="#0057FF" fill-rule="nonzero" fill-opacity="1" transform="matrix(1.00389 0 0 1 965.779 209)"/><path d="M85.4781 27.8111 26.7477 27.8111 26.7477 0 85.4508 0 85.4508 27.8111ZM33.5914 20.9946 78.6617 20.9946 78.6617 6.81644 33.5641 6.81644 33.5641 20.9946Z" fill="#0057FF" fill-rule="nonzero" fill-opacity="1" transform="matrix(1.00389 0 0 1 965.779 209)"/><path d="M28.0019 60.8844 17.6409 50.5507 22.467 45.7247 28.0019 51.2596 37.6813 41.553 42.5073 46.379 28.0019 60.8844Z" fill="#0057FF" fill-rule="nonzero" fill-opacity="1" transform="matrix(1.00389 0 0 1 965.779 209)"/><path d="M28.0019 81.5791 17.6409 71.2454 22.467 66.4194 28.0019 71.9543 37.6813 62.2477 42.5073 67.0737 28.0019 81.5791Z" fill="#0057FF" fill-rule="nonzero" fill-opacity="1" transform="matrix(1.00389 0 0 1 965.779 209)"/><path d="M28.0019 102.274 17.6409 91.9401 22.467 87.1141 28.0019 92.649 37.6813 82.9424 42.5073 87.7684 28.0019 102.274Z" fill="#0057FF" fill-rule="nonzero" fill-opacity="1" transform="matrix(1.00389 0 0 1 965.779 209)"/><path d="M49.7055 52.6502 91.5856 52.6502 91.5856 59.4666 49.7055 59.4666Z" fill="#0057FF" fill-rule="nonzero" fill-opacity="1" transform="matrix(1.00389 0 0 1 965.779 209)"/><path d="M119.478 142C109.499 142 100.12 138.128 93.058 131.066 85.9962 124.005 82.1244 114.625 82.1244 104.673L82.1244 67.3191 119.478 67.3191C129.458 67.3191 138.837 71.1909 145.899 78.2527 152.961 85.3145 156.833 94.6939 156.833 104.673 156.833 114.652 152.961 124.032 145.899 131.066 138.837 138.128 129.458 142 119.478 142ZM88.9409 74.1356 88.9409 104.673C88.9409 112.826 92.1037 120.487 97.884 126.268 103.664 132.048 111.326 135.211 119.478 135.211 127.631 135.211 135.293 132.021 141.073 126.268 146.853 120.515 150.016 112.826 150.016 104.673 150.016 96.5207 146.853 88.8591 141.073 83.0787 135.32 77.3257 127.631 74.1356 119.478 74.1356L88.9409 74.1356Z" fill="#0057FF" fill-rule="nonzero" fill-opacity="1" transform="matrix(1.00389 0 0 1 965.779 209)"/><path d="M137.747 119.969 130.93 119.969 130.93 117.624C130.93 111.326 125.804 106.2 119.506 106.2 113.207 106.2 108.081 111.326 108.081 117.624L108.081 119.969 101.265 119.969 101.265 117.624C101.265 107.563 109.445 99.3836 119.506 99.3836 129.567 99.3836 137.747 107.563 137.747 117.624L137.747 119.969Z" fill="#0057FF" fill-rule="nonzero" fill-opacity="1" transform="matrix(1.00389 0 0 1 965.779 209)"/><path d="M119.478 106.173C112.689 106.173 107.154 100.638 107.154 93.8487 107.154 87.0595 112.689 81.5246 119.478 81.5246 126.268 81.5246 131.803 87.0595 131.803 93.8487 131.803 100.638 126.268 106.173 119.478 106.173ZM119.478 88.341C116.452 88.341 113.971 90.8222 113.971 93.8487 113.971 96.8752 116.452 99.3564 119.478 99.3564 122.505 99.3564 124.986 96.8752 124.986 93.8487 124.986 90.8222 122.532 88.341 119.478 88.341Z" fill="#0057FF" fill-rule="nonzero" fill-opacity="1" transform="matrix(1.00389 0 0 1 965.779 209)"/></g></g></g></g></g></svg>