<svg width="1440" height="900" fill="none" xmlns="http://www.w3.org/2000/svg"><g clip-path="url(#clip0)"><path fill="#fff" d="M0 0h1440v900H0z"/><mask id="a" maskUnits="userSpaceOnUse" x="-221" y="512" width="495" height="472"><path fill-rule="evenodd" clip-rule="evenodd" d="M250.633 779.4c3.87 50.793-8.174 106.041-43.725 142.524-34.852 35.767-89.205 41.8-139.04 45.035-43.24 2.806-82.595-14.233-123.688-27.982-45.102-15.089-99.512-17.512-127.41-56.029-28.409-39.222-17.395-92.531-15.236-140.913 2.255-50.524-6.762-108.612 28.011-145.336 34.575-36.513 93.552-25.516 142.904-35.162 46.872-9.161 94.84-39.482 138.361-19.811 43.37 19.604 51.89 75.693 76.023 116.715 23.694 40.275 60.25 74.366 63.8 120.959z" fill="#DAE3F9" stroke="#DAE3F9"/></mask><g mask="url(#a)" stroke="#DAE3F9" stroke-width="2"><path d="M363.955 781.12l-512.156-667.559M361.93 788.605l-512.155-667.559m510.126 675.039l-512.156-667.559m510.127 675.04l-512.156-667.558M355.844 811.05l-512.155-667.559m510.128 675.04l-512.156-667.559m510.127 675.041l-512.156-667.559m510.126 675.039l-512.155-667.559m510.126 675.042l-512.155-667.559m510.127 675.041l-512.156-667.559M343.674 855.94l-512.155-667.558m510.126 675.04L-170.51 195.863m510.126 675.04L-172.54 203.344m510.128 675.041l-512.155-667.559m510.127 675.04l-512.155-667.559m510.126 675.042L-178.625 225.79m510.129 675.04l-512.156-667.559m510.125 675.041l-512.155-667.559m510.128 675.042L-184.71 248.236m510.127 675.039l-512.156-667.558m510.127 675.04l-512.155-667.559M321.36 938.24l-512.156-667.559m510.129 675.04l-512.156-667.559m510.126 675.041l-512.155-667.559m510.127 675.043l-512.156-667.559m510.128 675.038l-512.156-667.559m510.126 675.041L-200.938 308.09m510.127 675.04l-512.155-667.559m510.128 675.04l-512.156-667.558m510.126 675.042l-512.155-667.559m510.127 675.034l-512.155-667.555m510.128 675.045l-512.156-667.562m510.125 675.042l-512.155-667.559m510.127 675.039l-512.155-667.558M294.989 1035.5l-512.156-667.556m510.13 675.046l-512.156-667.563m510.126 675.043l-512.155-667.563m510.127 675.043l-512.156-667.561m510.127 675.041L-225.28 397.872m510.128 675.038l-512.155-667.558m510.126 675.038l-512.156-667.555m510.128 675.045l-512.156-667.563m510.127 675.043l-512.155-667.561m510.127 675.041l-512.156-667.559m510.129 675.039l-512.156-667.558M272.677 1117.8l-512.155-667.556m510.126 675.036l-512.155-667.555m510.128 675.045l-512.156-667.562m510.127 675.042l-512.155-667.56m510.126 675.04l-512.155-667.559m510.127 675.039l-512.156-667.557m510.127 675.037l-512.155-667.554m510.126 675.044l-512.155-667.563M256.45 1177.66l-512.156-667.562m510.127 675.042l-512.156-667.561m510.127 675.041l-512.155-667.558M250.365 1200.1l-512.156-667.555m510.127 675.035L-263.82 540.024m510.127 675.046l-512.155-667.563m510.127 675.043l-512.156-667.56m510.128 675.04l-512.156-667.56m510.126 675.04l-512.155-667.556M238.194 1245l-512.156-667.563m510.126 675.043l-512.156-667.563m510.128 675.043l-512.155-667.562m510.126 675.042l-512.155-667.56m510.127 675.04l-512.156-667.558M228.051 1282.4l-512.155-667.556m510.126 675.036l-512.155-667.556m510.127 675.046l-512.156-667.563m510.128 675.043l-512.155-667.56m510.126 675.04l-512.155-667.56m510.126 675.04l-512.156-667.557m510.127 675.037l-512.155-667.556m510.128 675.036l-512.155-667.554m510.125 675.044l-512.156-667.561m510.129 675.041l-512.156-667.56m510.127 675.04l-512.155-667.559M205.737 1364.7l-512.156-667.556M203.71 1372.18l-512.156-667.554m510.127 675.044l-512.155-667.563m510.126 675.043l-512.156-667.561m510.128 675.041l-512.156-667.561m510.128 675.041l-512.155-667.557m510.126 675.037l-512.156-667.556m510.127 675.036l-512.156-667.556m510.129 675.046l-512.155-667.562m510.125 675.042l-512.155-667.56m510.128 675.04l-512.156-667.559"/></g><mask id="b" maskUnits="userSpaceOnUse" x="701" y="-152" width="557" height="539"><path fill-rule="evenodd" clip-rule="evenodd" d="M764.282 46.533c5.225-50.671 26.902-102.897 68.375-132.476 40.657-28.999 95.217-25.269 144.832-19.59 43.051 4.928 78.751 28.695 116.741 49.532 41.7 22.87 94.81 34.93 115.41 77.795 20.99 43.65.67 94.15-10.06 141.376-11.21 49.318-12.66 108.084-53.41 138.038-40.52 29.783-96.6 8.473-146.883 9.188-47.754.679-100.35 21.986-139.678-5.112-39.193-27.004-37.602-83.714-54.055-128.374-16.154-43.847-46.065-83.895-41.272-130.377z" fill="#DAE3F9" stroke="#DAE3F9"/></mask><g mask="url(#b)" stroke="#DAE3F9" stroke-width="2"><path d="M653.072 24.687l385.268 748M656.397 17.682l385.273 748M659.724 10.681l385.276 748M663.051 3.68l385.269 748M666.377-3.322l385.273 747.999M669.703-10.324l385.267 747.999M673.03-17.326l385.27 747.999M676.358-24.326l385.272 747.999M679.685-31.328l385.275 748M683.011-38.331l385.269 748M686.337-45.334l385.273 748M689.664-52.335l385.276 748M692.99-59.336l385.27 748M696.317-66.338l385.273 748M699.643-73.34l385.267 748M702.971-80.342l385.269 748M706.296-87.343l385.274 748M709.625-94.345l385.275 748M712.95-101.348l385.27 748M716.277-108.349l385.273 748M719.605-115.35l385.275 748M722.932-122.353l385.268 748M726.257-129.354l385.273 748M729.584-136.357l385.276 748M732.911-143.36l385.269 748M736.237-150.359l385.273 748M739.565-157.362l385.275 748M742.891-164.364l385.269 748m-381.943-755l385.273 747.999M749.545-178.367l385.275 747.999M752.87-185.367l385.27 747.999M756.197-192.37l385.273 748M759.525-199.373l385.275 748m-381.948-755l385.268 748M766.179-213.375l385.271 748M769.504-220.378l385.276 748m-381.948-755l385.268 748M776.158-234.381l385.272 748M779.485-241.383l385.275 748M782.812-248.384l385.268 748M786.139-255.387l385.271 748M789.465-262.388l385.275 748M792.792-269.39l385.268 748M796.118-276.393l385.272 748M799.444-283.395l385.276 748m-381.948-755l385.268 748M806.099-297.397l385.271 748M809.425-304.4l385.275 748M812.751-311.402l385.269 748m-381.942-755l385.272 748M819.405-325.405l385.275 748M822.732-332.406L1208 415.593M826.06-339.408l385.27 747.999M829.385-346.41l385.275 747.999M832.712-353.41l385.268 747.999M836.038-360.413l385.272 748M839.364-367.416l385.276 748M842.692-374.415l385.268 748M846.019-381.418l385.271 748M849.346-388.421l385.274 748M852.671-395.422l385.269 748M856-402.425l385.27 748M859.325-409.429l385.275 748M862.653-416.428l385.277 748M865.98-423.43l385.27 748M869.306-430.431l385.274 748M872.633-437.434l385.267 748M875.959-444.437l385.271 748M879.286-451.436l385.274 748M882.612-458.439l385.268 748M885.939-465.442l385.271 748m-381.944-755l385.274 748M892.594-479.444l385.276 748M895.919-486.446l385.271 748M899.245-493.447l385.275 747.999M902.574-500.45l385.276 747.999m-381.95-755l385.27 747.999m-381.943-755L1294.5 233.547M912.554-521.455l385.276 748M915.88-528.457l385.27 748M919.206-535.458l385.274 748M922.533-542.46l385.277 748M925.859-549.461l385.271 748M929.186-556.464l385.274 748M932.513-563.465l385.267 748M935.84-570.466l385.27 748M939.165-577.469l385.275 748M942.493-584.472l385.277 748m-381.951-755l385.271 748"/></g></g><defs><clipPath id="clip0"><path fill="#fff" d="M0 0h1440v900H0z"/></clipPath></defs></svg>