<svg width="1566" height="616" fill="none" xmlns="http://www.w3.org/2000/svg"><g clip-path="url(#clip0)"><path fill="#fff" d="M0 0h1566v616H0z"/><mask id="a" maskUnits="userSpaceOnUse" x="893" y="196" width="495" height="471"><path fill-rule="evenodd" clip-rule="evenodd" d="M1365.05 462.988c3.87 50.793-8.18 106.042-43.73 142.525-34.85 35.767-89.2 41.8-139.04 45.034-43.24 2.807-82.59-14.232-123.69-27.981-45.1-15.09-99.507-17.512-127.405-56.029-28.409-39.222-17.396-92.531-15.236-140.913 2.255-50.524-6.762-108.613 28.011-145.336 34.575-36.514 93.55-25.517 142.9-35.162 46.88-9.162 94.84-39.482 138.36-19.811 43.37 19.604 51.89 75.692 76.03 116.715 23.69 40.275 60.25 74.366 63.8 120.958z" fill="#DAE3F9" stroke="#DAE3F9"/></mask><g mask="url(#a)" stroke="#DAE3F9" stroke-width="2"><path d="M1478.37 464.709L966.214-202.85m510.126 675.043L964.189-195.365m510.131 675.039L962.16-187.885m510.13 675.041L960.131-180.403m510.129 675.041L958.103-172.921M1468.23 502.12L956.076-165.439M1466.2 509.602L954.047-157.957m510.123 675.039L952.017-150.477m510.123 675.041L949.988-142.994m510.132 675.041L947.96-135.512m510.13 675.041L945.933-128.03m510.127 675.041L943.904-120.548m510.126 675.04L941.875-113.067M1452 561.974L939.848-105.585m510.132 675.04L937.82-98.104m510.13 675.042L935.79-90.622m510.13 675.041L933.763-83.14M1443.89 591.9L931.732-75.658m510.128 675.042L929.705-68.175m510.125 675.039L927.676-60.695M1437.8 614.346L925.647-53.214m510.123 675.043L923.619-45.73m510.131 675.04L921.591-38.25m510.129 675.042L919.562-30.767m510.128 675.042L917.534-23.283m510.126 675.038L915.505-15.804m510.125 675.041L913.476-8.322M1423.6 666.719L911.449-.841M1421.58 674.2L909.421 6.641m510.129 675.043L907.391 14.124m510.129 675.039L905.364 21.604m510.126 675.042L903.335 29.086m510.125 675.043L901.306 36.57m510.124 675.039L899.277 44.05M1409.4 719.092L897.248 51.533m510.132 675.041L895.221 59.015m510.129 675.04L893.192 66.495m510.128 675.042L891.163 73.978M1401.29 749.02L889.135 81.46M1399.26 756.5L887.107 88.941m510.123 675.041L885.078 96.424m510.132 675.041L883.05 103.906m510.13 675.04L881.021 111.387m510.129 675.042L878.993 118.87m510.127 675.04L876.965 126.351m510.125 675.041L874.936 133.833m510.124 675.04L872.907 141.314m510.123 675.042L870.879 148.797m510.131 675.041L868.851 156.279m510.129 675.039L866.822 163.76m510.128 675.041L864.794 171.242m510.126 675.041L862.765 178.724m510.125 675.041L860.736 186.206m510.124 675.04L858.709 193.687m510.131 675.04L856.68 201.168m510.13 675.042L854.652 208.651m510.128 675.041L852.624 216.134m510.126 675.038L850.595 223.613m510.125 675.041L848.566 231.095m510.124 675.043L846.538 238.579m510.132 675.039L844.51 246.059m510.13 675.043L842.48 253.543m510.13 675.042L840.453 261.026m510.127 675.038L838.423 268.506m510.127 675.04L836.395 275.987m510.125 675.04L834.367 283.469M1344.49 958.51L832.338 290.951m510.132 675.041L830.31 298.433m510.13 675.039L828.281 305.913m510.129 675.042L826.253 313.396m510.127 675.042L824.225 320.879m510.125 675.039L822.197 328.359M1332.32 1003.4L820.167 335.842m510.123 675.038L818.139 343.323m510.131 675.037L816.111 350.804m510.129 675.046L814.081 358.288m510.129 675.042L812.054 365.769m510.126 675.041L810.025 373.25m510.125 675.04L807.996 380.733m510.124 675.037L805.969 388.215M1316.1 1063.25L803.94 395.696m510.13 675.044L801.911 403.178m510.129 675.042L799.883 410.658M1310.01 1085.7L797.855 418.141m510.125 675.039L795.826 425.623m510.124 675.037L793.797 433.103m510.133 675.047L791.77 440.587m510.13 675.043L789.741 448.069m510.129 675.041L787.712 455.55"/></g><mask id="b" maskUnits="userSpaceOnUse" x="178" y="-171" width="517" height="545"><path fill-rule="evenodd" clip-rule="evenodd" d="M415.317 363.594c-58.552 7.986-123.361-2.149-168.062-40.8-43.822-37.891-54.559-100.416-61.743-157.901-6.233-49.88 10.783-96.629 23.869-145.163 14.362-53.269 13.413-116.443 56.091-151.407 43.459-35.604 105.951-26.528 162.126-27.366 58.663-.874 125.308-15.324 170.233 22.41C642.5-99.114 633.834-30.061 648.409 26.423c13.843 53.647 52.264 107.103 32.487 158.856-19.709 51.576-84.072 65.312-129.911 96.089-45.004 30.217-81.959 74.901-135.668 82.226z" fill="#DAE3F9" stroke="#DAE3F9"/></mask><g mask="url(#b)" stroke="#DAE3F9" stroke-width="2"><path d="M421.144 494.942l737.696-639.137M412.337 493.111l737.703-639.137M403.534 491.278L1141.23-147.86M394.731 489.446l737.699-639.138M385.926 487.613l737.704-639.138M377.121 485.782l737.699-639.138M368.318 483.948L1106.02-155.19M359.515 482.114l737.695-639.138M350.711 480.282l737.699-639.138M341.906 478.449l737.704-639.138M333.101 476.618L1070.8-162.52M324.299 474.784L1062-164.354M315.495 472.951l737.695-639.138m-746.5 637.306l737.7-639.138M297.887 469.287l737.703-639.138M289.084 467.452l737.696-639.138M280.279 465.621l737.701-639.138M271.476 463.787l737.704-639.138M262.671 461.956l737.699-639.138M253.867 460.122l737.7-639.138M245.064 458.289l737.7-639.138M236.26 456.456l737.699-639.138M227.456 454.624l737.7-639.138M218.651 452.792l737.7-639.138M209.846 450.959l737.7-639.138M201.045 449.125l737.7-639.138M192.24 447.293l737.7-639.138M183.437 445.46l737.7-639.138M174.632 443.628l737.7-639.138M165.827 441.795l737.699-639.138m-746.5 637.306l737.699-639.138M148.22 438.129l737.7-639.138M139.415 436.296l737.7-639.138M130.612 434.463l737.7-639.138M121.809 432.631l737.7-639.138M113.004 430.798l737.7-639.138M104.2 428.965l737.7-639.138M95.396 427.132l737.699-639.137M86.593 425.298l737.699-639.137M77.79 423.465l737.699-639.137M68.985 421.633l737.699-639.137M60.182 419.8L797.88-219.337M51.376 417.968l737.7-639.137M42.572 416.136L780.27-223.001M33.768 414.304l737.7-639.137M24.966 412.47l737.699-639.137M16.162 410.636L753.86-228.501M7.357 408.805l737.699-639.137M-1.448 406.972l737.7-639.137M-10.25 405.138l737.7-639.137M-19.054 403.306l737.7-639.137M-27.86 401.474l737.7-639.137M-36.662 399.641l737.699-639.137M-45.465 397.809l737.699-639.137M-54.269 395.974l737.7-639.137M-63.074 394.143l737.7-639.137M-71.878 392.31L665.82-246.827m-746.5 637.304l737.7-639.137M-89.485 388.645l737.699-639.137M-98.29 386.811l737.7-639.137m-746.503 637.305l737.7-639.137m-746.505 637.303l737.699-639.137m-746.504 637.306l737.699-639.137M-133.507 379.48l737.7-639.137m-746.502 637.304L595.39-261.49m-746.503 637.305l737.7-639.137m-746.505 637.304l737.7-639.137M-168.723 372.15l737.7-639.137m-746.501 637.304L560.175-268.82m-746.504 637.305l737.7-639.137m-746.505 637.304l737.7-639.137m-746.503 637.304l737.699-639.137M-212.74 362.985l737.699-639.137m-746.502 637.305l737.699-639.138M-230.348 359.32l737.699-639.138m-746.505 637.305l737.7-639.138m-746.503 637.306l737.7-639.138M-256.76 353.822l737.7-639.138M-265.565 351.99l737.7-639.138m-746.503 637.304l737.7-639.138m-746.505 637.306l737.699-639.138m-746.502 637.305l737.699-639.138m-746.502 637.306l737.7-639.138m-746.505 637.306l737.699-639.138m-746.502 637.304l737.7-639.138m-746.504 637.304l737.7-639.138m-746.504 637.307l737.7-639.138m-746.506 637.305l737.7-639.138m-746.503 637.306l737.7-639.138"/></g></g><defs><clipPath id="clip0"><path fill="#fff" d="M0 0h1566v616H0z"/></clipPath></defs></svg>